<?xml version="1.0" standalone="no"?>
<!DOCTYPE svg PUBLIC "-//W3C//DTD SVG 1.1//EN" "http://www.w3.org/Graphics/SVG/1.1/DTD/svg11.dtd" >
<svg xmlns="http://www.w3.org/2000/svg" xmlns:xlink="http://www.w3.org/1999/xlink" version="1.1">
<metadata>
Created by FontForge 20150318 at Fri May 15 11:40:18 2015
 By uniteet7
Copyright (c) 2014 by Antonio Rodrigues Jr. All rights reserved.
</metadata>
<defs>
<font id="Delhi" horiz-adv-x="498" >
  <font-face
    font-family="Delhi"
    font-weight="400"
    font-stretch="normal"
    units-per-em="1000"
    panose-1="2 0 4 0 0 0 0 0 0 0"
    ascent="800"
    descent="-200"
    x-height="862"
    cap-height="863"
    bbox="-129 -146 1218 1091"
    underline-thickness="20"
    underline-position="-123"
    unicode-range="U+0020-2212"
  />
<missing-glyph horiz-adv-x="201"
 />
    <glyph glyph-name=".notdef" horiz-adv-x="201"
 />
    <glyph glyph-name=".null" horiz-adv-x="0"
 />
    <glyph glyph-name="nonmarkingreturn" horiz-adv-x="333"
 />
    <glyph glyph-name="space" unicode=" " horiz-adv-x="201"
 />
    <glyph glyph-name="exclam" unicode="!" horiz-adv-x="151"
d="M76 160h-76v703h76v-703zM76 0h-76v80h76v-80z" />
    <glyph glyph-name="quotedbl" unicode="&#x22;" horiz-adv-x="251"
d="M76 783l-38 -40v40h-38v80h76v-80zM176 783l-38 -40v40h-38v80h76v-80z" />
    <glyph glyph-name="numbersign" unicode="#" horiz-adv-x="474"
d="M188 528h76l22 86h76l-22 -86h59l-20 -76h-58l-19 -76h58l-19 -76h-58l-21 -86h-76l21 86h-76l-21 -85h-76l21 85h-55l19 76h55l19 76h-54l19 76h54l22 86h76zM150 376h76l19 76h-76z" />
    <glyph glyph-name="dollar" unicode="$" horiz-adv-x="529"
d="M443 264q4 -47 -9.5 -90.5t-40 -79t-65 -60t-85.5 -33.5q-71 -14 -136 12t-107 80l54 55q28 -42 75 -63t100 -11q35 7 63 26.5t46.5 47t25.5 62t0 71.5q-16 68 -74 111l-148 110q-66 48 -81 129q-4 19 -4 38q0 43 16.5 81.5t44.5 67t66 45t82 16.5q62 0 112 -32t76 -83
l-63 -42q-15 37 -48.5 60t-75.5 23q-28 0 -52.5 -10.5t-42.5 -28.5t-28.5 -42.5t-10.5 -52.5q0 -13 3 -26q9 -51 51 -83l148 -111q86 -65 105 -165q1 -6 1.5 -8.5t-1.5 8.5z" />
    <glyph glyph-name="percent" unicode="%" horiz-adv-x="36"
 />
    <glyph glyph-name="ampersand" unicode="&#x26;" horiz-adv-x="775"
d="M425 725q-18 26 -47 42.5t-63 18.5h-5q-31 -2 -54 -25q-25 -25 -25 -59q0 -26 12 -43l299 -431q12 35 12 76h75q0 -81 -37 -149l108 -155h-92l-63 89q-92 -100 -230 -100q-130 0 -222.5 92.5t-92.5 222.5q0 98 52 178t142 115q-38 53 -38 105q0 66 46 113q44 45 106 48
q52 0 96.5 -22.5t74.5 -60.5zM239 533q-76 -23 -120 -86t-44 -143q0 -99 70.5 -169.5t169.5 -70.5q113 0 186 89z" />
    <glyph glyph-name="quotesingle" unicode="'" horiz-adv-x="151"
d="M76 783l-38 -40v40h-38v80h76v-80z" />
    <glyph glyph-name="parenleft" unicode="(" horiz-adv-x="342"
d="M222 -108q-105 88 -163.5 210.5t-58.5 258.5t58.5 259t163.5 210l45 -61q-91 -76 -140.5 -182.5t-49.5 -225.5q0 -118 50 -225t140 -183z" />
    <glyph glyph-name="parenright" unicode=")" horiz-adv-x="341"
d="M266 362q0 -136 -58 -259t-163 -209l-45 61q91 76 141 182.5t50 224.5t-50 225t-140 182l45 61q104 -86 162 -209t58 -259z" />
    <glyph glyph-name="asterisk" unicode="*" horiz-adv-x="349"
d="M99 796v67h76v-67l55 38l44 -63l-70 -48l70 -48l-44 -63l-55 38v-67h-76v67l-55 -38l-44 63l69 48l-69 48l44 63z" />
    <glyph glyph-name="plus" unicode="+" horiz-adv-x="275"
d="M200 391h-62v-64h-76v64h-62v76h62v60h76v-60h62v-76z" />
    <glyph glyph-name="comma" unicode="," horiz-adv-x="151"
d="M76 0l-38 -40v40h-38v80h76v-80z" />
    <glyph glyph-name="hyphen" unicode="-" horiz-adv-x="275"
d="M200 391h-200v76h200v-76z" />
    <glyph glyph-name="hyphen" unicode="&#x2010;" horiz-adv-x="275"
d="M200 391h-200v76h200v-76z" />
    <glyph glyph-name="period" unicode="." horiz-adv-x="151"
d="M76 0h-76v80h76v-80z" />
    <glyph glyph-name="slash" unicode="/" horiz-adv-x="423"
d="M348 840l-275 -897l-73 -1l275 897z" />
    <glyph glyph-name="zero" unicode="0" horiz-adv-x="960"
d="M885 430q0 -182 -130.5 -312t-313.5 -130t-312 129.5t-129 312.5t129 313.5t312 130.5t313.5 -130.5t130.5 -313.5zM808 430q0 152 -107.5 259.5t-259.5 107.5q-151 0 -258.5 -107.5t-107.5 -259.5q0 -151 107.5 -258.5t258.5 -107.5q152 0 259.5 107.5t107.5 258.5z" />
    <glyph glyph-name="one" unicode="1" horiz-adv-x="241"
d="M45 863h121v-863h-75v789h-91z" />
    <glyph glyph-name="two" unicode="2" horiz-adv-x="646"
d="M48 706q21 42 55 76q80 81 197 81q116 0 188 -75t72 -177q0 -72 -34.5 -134.5t-133.5 -169.5l-209 -226h388v-81h-571l321 347q98 105 127.5 155.5t29.5 106.5q0 71 -53 122t-129 51q-81 0 -135 -54q-31 -31 -47 -78z" />
    <glyph glyph-name="three" unicode="3" horiz-adv-x="667"
d="M592 302q0 -130 -92 -222.5t-222 -92.5q-85 0 -156 40q-1 1 -6 3.5t-37.5 27t-78.5 95.5l68 34q28 -53 78 -86q60 -39 132 -39q98 0 168.5 70.5t70.5 169.5t-70.5 169t-168.5 70h-79l196 243h-339v77h496l-203 -253q107 -25 175 -111t68 -195z" />
    <glyph glyph-name="four" unicode="4" horiz-adv-x="704"
d="M629 253h-78v-253h-75v253h-476l477 608h74v-532h78v-76zM476 329v407l-320 -407h320z" />
    <glyph glyph-name="five" unicode="5" horiz-adv-x="563"
d="M412 318q-2 96 -70 164q-70 71 -169 71q-68 0 -128 -37l-2 -2h-1l2 350h358v-77h-279l-1 -163q25 4 51 4q130 0 222 -93q92 -91 93 -219v-11q0 -130 -92.5 -222.5t-222.5 -92.5q-96 0 -173 51l42 63q61 -39 131 -39q99 0 169 70q68 69 70 165v18z" />
    <glyph glyph-name="six" unicode="6" horiz-adv-x="663"
d="M0 300q0 110 72 200l291 364h97l-224 -282q14 3 29 4.5t35 1.5q61 0 113.5 -22t91.5 -61t61 -91.5t22 -113.5t-22 -115.5t-61 -95.5t-91.5 -65t-113.5 -24t-115.5 24t-95.5 65t-65 95.5t-24 115.5zM77 300q0 -45 18 -85t49 -71t71 -49t85 -18t84 18t67.5 49t45 71
t16.5 85t-16.5 84t-46 67.5t-69.5 45t-88 16.5q-44 0 -82.5 -15.5t-67.5 -43t-47 -65t-19 -80.5v-9z" />
    <glyph glyph-name="seven" unicode="7" horiz-adv-x="575"
d="M500 861l-284 -861h-80l259 784h-395v77h500z" />
    <glyph glyph-name="eight" unicode="8" horiz-adv-x="663"
d="M293 864q37 0 69 -14t56 -38t38 -56t14 -68q0 -38 -14.5 -70.5t-39.5 -56.5q38 -18 69.5 -45t54.5 -61.5t35.5 -75.5t12.5 -85q0 -61 -23 -114.5t-63 -93.5t-93.5 -63t-114.5 -23t-114.5 23t-93.5 63t-63 93.5t-23 114.5q0 44 12.5 84.5t35 75t54 62t69.5 44.5
q-25 24 -39.5 57t-14.5 71q0 36 14 68t38 56t56 38t68 14zM513 294q0 45 -17.5 85t-47.5 70t-70 47.5t-85 17.5q-44 0 -83.5 -17.5t-69 -47.5t-46.5 -70t-17 -85t17 -84.5t46.5 -69t69 -46.5t84.5 -17t85 17t69.5 46.5t47 69t17.5 84.5zM293 789q-21 0 -39.5 -8t-32 -21.5
t-21 -31.5t-7.5 -39t8 -39.5t22 -32t33 -21.5t41 -8q41 2 69 30.5t28 70.5q0 21 -8 39t-21.5 31.5t-32 21.5t-39.5 8z" />
    <glyph glyph-name="nine" unicode="9" horiz-adv-x="663"
d="M588 564q0 -110 -72 -200l-291 -364h-97l224 282q-14 -3 -29 -4.5t-35 -1.5q-61 0 -113.5 22t-91.5 61t-61 91.5t-22 113.5t22 115.5t61 95.5t91.5 65t113.5 24t115.5 -24t95.5 -65t65 -95.5t24 -115.5zM511 564q0 45 -18 85t-49 71t-71 49t-85 18t-84 -18t-67.5 -49
t-45 -71t-16.5 -85t16.5 -84t46 -67.5t69.5 -45t88 -16.5q43 0 82 15.5t68 43t46.5 65t19.5 80.5v9z" />
    <glyph glyph-name="colon" unicode=":" horiz-adv-x="151"
d="M76 339h-76v82h76v-82zM76 0h-76v80h76v-80z" />
    <glyph glyph-name="semicolon" unicode=";" horiz-adv-x="151"
d="M76 339h-76v82h76v-82zM76 0l-38 -40v40h-38v80h76v-80z" />
    <glyph glyph-name="less" unicode="&#x3c;" horiz-adv-x="223"
d="M73 499h75l-72 -145l72 -144h-75l-73 144v1z" />
    <glyph glyph-name="equal" unicode="=" horiz-adv-x="475"
d="M0 452v76h400v-76h-400zM399 376v-76h-399v76h399z" />
    <glyph glyph-name="greater" unicode="&#x3e;" horiz-adv-x="223"
d="M148 355v-1l-73 -144h-75l72 144l-72 145h75z" />
    <glyph glyph-name="question" unicode="?" horiz-adv-x="439"
d="M364 650q0 -81 -54 -140l-125 -137q-52 -57 -52 -132v-94h-76v94q0 103 72 183l124 137q36 40 36 89q0 56 -39 95t-95 39q-59 0 -99 -43l-56 51q61 69 155 69q86 0 147.5 -62t61.5 -149zM133 -2h-76v73h76v-73z" />
    <glyph glyph-name="at" unicode="@" horiz-adv-x="926"
d="M781 127q-61 -72 -148.5 -113.5t-189.5 -41.5q-92 0 -172.5 35t-140.5 95t-95 140.5t-35 172.5t35 173t95 141t140.5 95t172.5 35q95 0 177 -37t143 -100q14 -14 25.5 -31.5t21.5 -35.5q41 -74 41 -159q0 -106 -49 -182.5t-133 -119.5q-64 -33 -109 -33q-33 0 -52 18
q-15 13 -16 45q-19 -24 -53 -40.5t-70 -16.5q-82 0 -135 56.5t-53 149.5q0 100 64.5 183t178.5 83q49 0 83 -19t64 -65l15 78h61l-66 -371q-3 -18 -3 -23q0 -13 8 -20.5t21 -7.5q33 0 86.5 39t73.5 100t20 135q0 61 -18 113q-21 47 -54.5 84.5t-76.5 63.5t-93.5 40
t-104.5 14q-81 0 -151.5 -30.5t-123.5 -83.5t-83.5 -123.5t-30.5 -150.5q0 -81 30.5 -151.5t83.5 -123.5t123.5 -83.5t151.5 -30.5q90 0 167 38t131 103zM387 231q37 0 70 23.5t52 70.5q25 62 25 124q0 58 -32 93.5t-83 35.5q-68 0 -117.5 -56t-49.5 -139q0 -70 37.5 -111
t97.5 -41z" />
    <glyph glyph-name="A" unicode="A" horiz-adv-x="707"
d="M488 202h-351l-76 -202h-81l333 885l332 -885h-80zM166 277h294l-147 387z" />
    <glyph glyph-name="B" unicode="B" horiz-adv-x="539"
d="M189 862q37 0 69 -13.5t56 -37.5t38 -56t14 -69q0 -41 -16.5 -75.5t-44.5 -58.5q35 -18 64.5 -45t50.5 -61t32.5 -73t11.5 -81q0 -60 -22.5 -112.5t-61 -92t-90.5 -63t-111 -24.5h-179v862h189zM77 75h97q45 0 84.5 17t69 46.5t46.5 69t17 84.5q0 44 -16.5 83t-45 68
t-66.5 46.5t-82 19.5h-104v-434zM172 584q10 0 15 -1v1h4q21 0 39.5 8t32.5 22t22 32.5t8 39.5t-8 39.5t-22 32t-32.5 21.5t-39.5 8h-114v-203h95z" />
    <glyph glyph-name="C" unicode="C" horiz-adv-x="761"
d="M686 61q-109 -73 -243 -73q-183 0 -313 130t-130 312q0 183 130 313.5t313 130.5q131 0 243 -73l-41 -64q-90 60 -202 60q-152 0 -259.5 -107.5t-107.5 -259.5q0 -151 108 -258.5t259 -107.5q110 0 202 60z" />
    <glyph glyph-name="D" unicode="D" horiz-adv-x="587"
d="M0 0v863h81q178 -1 304.5 -128t126.5 -305t-126.5 -304t-304.5 -126h-81zM75 787v-713h6q147 0 252 104.5t105 251.5q0 148 -104.5 252.5t-252.5 104.5h-6z" />
    <glyph glyph-name="E" unicode="E"
d="M423 0h-423v862h419v-75h-342v-434h284v-75h-284v-203h346v-75z" />
    <glyph glyph-name="F" unicode="F" horiz-adv-x="494"
d="M0 0v862h419v-75h-342v-434h287v-75h-287v-278h-77z" />
    <glyph glyph-name="G" unicode="G" horiz-adv-x="778"
d="M703 72q-131 -84 -261 -84q-182 0 -312 130t-130 312q0 183 130 313.5t312 130.5q132 0 244 -73l-42 -64q-90 60 -202 60q-151 0 -259 -107.5t-108 -259.5q0 -151 108 -258.5t259 -107.5q99 0 186 49v164h-192v76h267v-281z" />
    <glyph glyph-name="H" unicode="H" horiz-adv-x="766"
d="M615 276h-539v-276h-76v862h76v-509h539v509h76v-862h-76v276z" />
    <glyph glyph-name="I" unicode="I" horiz-adv-x="150"
d="M75 0h-75v863h75v-863z" />
    <glyph glyph-name="J" unicode="J" horiz-adv-x="274"
d="M199 198q0 -82 -58.5 -140t-140.5 -58v75q51 0 87 36.5t36 86.5v664h76v-664z" />
    <glyph glyph-name="K" unicode="K" horiz-adv-x="663"
d="M223 375l278 -373h-93l-232 311l-100 -134v-179h-76l1 862h78l-2 -557l418 557h93z" />
    <glyph glyph-name="L" unicode="L" horiz-adv-x="496"
d="M421 0h-421v862h75v-787h346v-75z" />
    <glyph glyph-name="M" unicode="M" horiz-adv-x="870"
d="M0 877h1l396 -676l397 676h1v-877h-72v612l-325 -560l-326 560v-612h-72v877z" />
    <glyph glyph-name="N" unicode="N" horiz-adv-x="749"
d="M674 -22l-600 688v-666h-74v873l600 -698v688h74v-885z" />
    <glyph glyph-name="O" unicode="O" horiz-adv-x="960"
d="M885 430q0 -182 -130.5 -312t-313.5 -130t-312 129.5t-129 312.5t129 313.5t312 130.5t313.5 -130.5t130.5 -313.5zM808 430q0 152 -107.5 259.5t-259.5 107.5q-151 0 -258.5 -107.5t-107.5 -259.5q0 -151 107.5 -258.5t258.5 -107.5q152 0 259.5 107.5t107.5 258.5z" />
    <glyph glyph-name="P" unicode="P" horiz-adv-x="639"
d="M0 0v862h272q60 0 113.5 -23t93 -62.5t62.5 -93t23 -113.5t-23 -113.5t-62.5 -93t-93 -62.5t-113.5 -23h-6h-189v-278h-77zM77 353h206q43 1 81 19t66.5 47t44.5 68t16 83q0 45 -17 84.5t-46.5 69t-69 46.5t-84.5 17h-2h-195v-434z" />
    <glyph glyph-name="Q" unicode="Q" horiz-adv-x="961"
d="M886 430q0 -107 -48.5 -200t-131.5 -155l59 -96l-64 -39l-59 96q-93 -48 -200 -48q-182 0 -312 130t-130 312q0 183 130 313.5t312 130.5q183 0 313.5 -130.5t130.5 -313.5zM810 430q0 152 -108 259.5t-260 107.5q-151 0 -259 -107.5t-108 -259.5q0 -151 108 -258.5
t259 -107.5q85 0 159 36l-54 88l64 40l55 -89q67 52 105.5 128.5t38.5 162.5z" />
    <glyph glyph-name="R" unicode="R" horiz-adv-x="639"
d="M0 0v862h274q60 0 113 -23.5t92 -63t62 -92.5t23 -113q0 -54 -18 -102t-50 -86t-75.5 -64t-94.5 -35l234 -283h-97l-231 278h-155v-278h-77zM77 353h206q43 1 81 19t66.5 47t44.5 68t16 83q0 45 -17 84.5t-46.5 69t-69 46.5t-84.5 17h-197v-434z" />
    <glyph glyph-name="S" unicode="S" horiz-adv-x="540"
d="M401 735q-21 28 -49 45t-66 21q-33 3 -62 -3t-51.5 -21.5t-36.5 -40t-17 -58.5t6.5 -55t32.5 -39.5t59 -39.5t86 -55q35 -20 71 -46.5t59 -55.5q25 -30 34.5 -70.5t4.5 -83.5q-5 -56 -29.5 -101.5t-62.5 -76t-86.5 -45t-101.5 -9.5q-58 5 -110 33.5t-82 76.5l60 50
q20 -38 53.5 -58t83.5 -25q36 -4 70 4t61.5 27t46 49t22.5 71q4 43 -5.5 70.5t-29.5 48.5t-48 39.5t-61 41.5q-23 12 -45.5 24t-45 26t-44 30.5t-41.5 39.5q-23 26 -31.5 61t-3.5 80q4 46 26.5 82.5t57 61.5t78 36.5t91.5 6.5q47 -5 89 -28.5t73 -60.5z" />
    <glyph glyph-name="T" unicode="T" horiz-adv-x="647"
d="M572 787h-248v-787h-75v787h-249v75h572v-75z" />
    <glyph glyph-name="U" unicode="U" horiz-adv-x="766"
d="M691 345q0 -142 -101.5 -243.5t-243.5 -101.5q-143 0 -244.5 101.5t-101.5 243.5v517h76v-517q0 -111 79 -190.5t191 -79.5q110 0 190 79.5t80 190.5v517h75v-517z" />
    <glyph glyph-name="V" unicode="V" horiz-adv-x="705"
d="M573 862h80l-332 -885l-333 885h81l252 -664z" />
    <glyph glyph-name="W" unicode="W" horiz-adv-x="1264"
d="M1206 863l-340 -916l-269 713l-270 -713l-339 916h81l257 -699l271 723l270 -723l258 699h81z" />
    <glyph glyph-name="X" unicode="X" horiz-adv-x="810"
d="M735 0h-92l-276 414l-276 -414h-91l322 483l-253 379h90l208 -312l207 312h92l-254 -379z" />
    <glyph glyph-name="Y" unicode="Y" horiz-adv-x="810"
d="M404 369v-369h-75v369l-329 493h91l276 -414l276 414h92z" />
    <glyph glyph-name="Z" unicode="Z" horiz-adv-x="740"
d="M665 862l-524 -787h509v-75h-650l524 787h-475v75h616z" />
    <glyph glyph-name="bracketleft" unicode="[" horiz-adv-x="216"
d="M141 862h-66v-862h66v-75h-141v1012h141v-75z" />
    <glyph glyph-name="backslash" unicode="\" horiz-adv-x="423"
d="M73 839l275 -897l-73 1l-275 897z" />
    <glyph glyph-name="bracketright" unicode="]" horiz-adv-x="216"
d="M0 937h141v-1012h-141v75h66v862h-66v75z" />
    <glyph glyph-name="asciicircum" unicode="^" horiz-adv-x="408"
d="M92 900h-92l131 164h71l131 -164h-93l-74 93z" />
    <glyph glyph-name="underscore" unicode="_" horiz-adv-x="574"
d="M499 -80h-499v75h499v-75z" />
    <glyph glyph-name="grave" unicode="`" horiz-adv-x="274"
d="M199 900h-74l-125 140h114z" />
    <glyph glyph-name="a" unicode="a"
d="M0 650q0 44 16.5 82.5t45 67.5t67 45.5t82.5 16.5t82.5 -16.5t67.5 -45.5t45.5 -67.5t16.5 -82.5v-650h-77v509h-269v-509h-77v650zM77 584h269v68q0 28 -10.5 52.5t-29 43t-43 29t-52.5 10.5t-52.5 -10.5t-42.5 -29t-28.5 -43t-10.5 -52.5v-68z" />
    <glyph glyph-name="b" unicode="b" horiz-adv-x="539"
d="M189 862q37 0 69 -13.5t56 -37.5t38 -56t14 -69q0 -41 -16.5 -75.5t-44.5 -58.5q35 -18 64.5 -45t50.5 -61t32.5 -73t11.5 -81q0 -60 -22.5 -112.5t-61 -92t-90.5 -63t-111 -24.5h-179v862h189zM77 75h97q45 0 84.5 17t69 46.5t46.5 69t17 84.5q0 44 -16.5 83t-45 68
t-66.5 46.5t-82 19.5h-104v-434zM172 584q10 0 15 -1v1h4q21 0 39.5 8t32.5 22t22 32.5t8 39.5t-8 39.5t-22 32t-32.5 21.5t-39.5 8h-114v-203h95z" />
    <glyph glyph-name="c" unicode="c" horiz-adv-x="761"
d="M686 61q-109 -73 -243 -73q-183 0 -313 130t-130 312q0 183 130 313.5t313 130.5q131 0 243 -73l-41 -64q-90 60 -202 60q-152 0 -259.5 -107.5t-107.5 -259.5q0 -151 108 -258.5t259 -107.5q110 0 202 60z" />
    <glyph glyph-name="d" unicode="d" horiz-adv-x="587"
d="M0 0v863h81q178 -1 304.5 -128t126.5 -305t-126.5 -304t-304.5 -126h-81zM75 787v-713h6q147 0 252 104.5t105 251.5q0 148 -104.5 252.5t-252.5 104.5h-6z" />
    <glyph glyph-name="e" unicode="e"
d="M423 787h-346v-203h284v-75h-284v-434h342v-75h-419v862h423v-75z" />
    <glyph glyph-name="f" unicode="f"
d="M423 787h-346v-203h284v-75h-284v-509h-77v862h423v-75z" />
    <glyph glyph-name="g" unicode="g" horiz-adv-x="778"
d="M703 72q-131 -84 -261 -84q-182 0 -312 130t-130 312q0 183 130 313.5t312 130.5q132 0 244 -73l-42 -64q-90 60 -202 60q-151 0 -259 -107.5t-108 -259.5q0 -151 108 -258.5t259 -107.5q99 0 186 49v395h-192v76h267v-512z" />
    <glyph glyph-name="h" unicode="h"
d="M0 862h77v-278h269v278h77v-862h-77v509h-269v-509h-77v862z" />
    <glyph glyph-name="i" unicode="i" horiz-adv-x="150"
d="M75 0h-75v863h75v-863z" />
    <glyph glyph-name="j" unicode="j" horiz-adv-x="462"
d="M56 145q14 -28 38 -45.5t51.5 -23.5t57 -0.5t53.5 24.5q10 8 19 18q35 36 35 88l-1 656h76v-655q2 -81 -53 -143q-13 -14 -28 -26q-36 -26 -77 -35t-81.5 -2t-78.5 30.5t-67 64.5z" />
    <glyph glyph-name="k" unicode="k" horiz-adv-x="663"
d="M223 375l278 -373h-93l-232 311l-100 -134v-179h-76l1 862h78l-2 -557l418 557h93z" />
    <glyph glyph-name="l" unicode="l" horiz-adv-x="496"
d="M421 0h-421v862h75v-787h346v-75z" />
    <glyph glyph-name="m" unicode="m" horiz-adv-x="870"
d="M0 877h1l396 -676l397 676h1v-877h-72v612l-325 -560l-326 560v-612h-72v877z" />
    <glyph glyph-name="n" unicode="n" horiz-adv-x="749"
d="M674 -22l-600 688v-666h-74v873l600 -698v688h74v-885z" />
    <glyph glyph-name="o" unicode="o" horiz-adv-x="960"
d="M885 430q0 -182 -130.5 -312t-313.5 -130t-312 129.5t-129 312.5t129 313.5t312 130.5t313.5 -130.5t130.5 -313.5zM808 430q0 152 -107.5 259.5t-259.5 107.5q-151 0 -258.5 -107.5t-107.5 -259.5q0 -151 107.5 -258.5t258.5 -107.5q152 0 259.5 107.5t107.5 258.5z" />
    <glyph glyph-name="p" unicode="p" horiz-adv-x="639"
d="M0 0v862h272q60 0 113.5 -23t93 -62.5t62.5 -93t23 -113.5t-23 -113.5t-62.5 -93t-93 -62.5t-113.5 -23h-6h-189v-278h-77zM77 353h206q43 1 81 19t66.5 47t44.5 68t16 83q0 45 -17 84.5t-46.5 69t-69 46.5t-84.5 17h-2h-195v-434z" />
    <glyph glyph-name="q" unicode="q" horiz-adv-x="930"
d="M855 430q0 -182 -130.5 -312t-313.5 -130t-312 129.5t-129 312.5t129 313.5t312 130.5t313.5 -130.5t130.5 -313.5zM778 430q0 152 -107.5 259.5t-259.5 107.5q-151 0 -258.5 -107.5t-107.5 -259.5q0 -151 107.5 -258.5t258.5 -107.5q152 0 259.5 107.5t107.5 258.5z
M717 -89q-43 -31 -72.5 -41.5t-62.5 -10.5q-43 0 -88 22q-39 19 -49 22q-15 4 -31 4q-21 0 -40 -7.5t-55 -33.5l-39 61q54 58 134 58q38 0 91 -24q51 -23 80 -23q33 0 90 31z" />
    <glyph glyph-name="r" unicode="r" horiz-adv-x="503"
d="M78 0h-78v862h189q37 0 69 -13.5t56 -37.5t38 -56t14 -69v-1q0 -53 -27.5 -95t-72.5 -64l162 -526h-73l-156 509h-122zM77 584h114q21 0 39.5 8t32.5 21.5t22 32t8 39.5v1q0 21 -8 39.5t-22 32t-32.5 21.5t-39.5 8h-114v-203z" />
    <glyph glyph-name="s" unicode="s" horiz-adv-x="529"
d="M443 264q4 -47 -9.5 -90.5t-40 -79t-65 -60t-85.5 -33.5q-71 -14 -136 12t-107 80l54 55q28 -42 75 -63t100 -11q35 7 63 26.5t46.5 47t25.5 62t0 71.5q-16 68 -74 111l-148 110q-66 48 -81 129q-4 19 -4 38q0 43 16.5 81.5t44.5 67t66 45t82 16.5q62 0 112 -32t76 -83
l-63 -42q-15 37 -48.5 60t-75.5 23q-28 0 -52.5 -10.5t-42.5 -28.5t-28.5 -42.5t-10.5 -52.5q0 -13 3 -26q9 -51 51 -83l148 -111q86 -65 105 -165q1 -6 1.5 -8.5t-1.5 8.5z" />
    <glyph glyph-name="t" unicode="t" horiz-adv-x="417"
d="M342 787h-148v-787h-75v787h-149v75h372v-75z" />
    <glyph glyph-name="u" unicode="u" horiz-adv-x="766"
d="M691 345q0 -142 -101.5 -243.5t-243.5 -101.5q-143 0 -244.5 101.5t-101.5 243.5v517h76v-517q0 -111 79 -190.5t191 -79.5q110 0 190 79.5t80 190.5v517h75v-517z" />
    <glyph glyph-name="v" unicode="v" horiz-adv-x="710"
d="M556 862h80l-332 -885l-333 885h81l252 -664z" />
    <glyph glyph-name="w" unicode="w" horiz-adv-x="1293"
d="M1218 863l-340 -916l-269 713l-270 -713l-339 916h81l257 -699l271 723l270 -723l258 699h81z" />
    <glyph glyph-name="x" unicode="x" horiz-adv-x="810"
d="M735 0h-92l-276 414l-276 -414h-91l322 483l-253 379h90l208 -312l207 312h92l-254 -379z" />
    <glyph glyph-name="y" unicode="y" horiz-adv-x="622"
d="M91 862l181 -273l183 273h92l-237 -354v-508h-75v510l-235 352h91z" />
    <glyph glyph-name="z" unicode="z" horiz-adv-x="740"
d="M665 862l-524 -787h509v-75h-650l524 787h-475v75h616z" />
    <glyph glyph-name="bar" unicode="|" horiz-adv-x="151"
d="M76 -75h-76v1012h76v-1012z" />
    <glyph glyph-name="asciitilde" unicode="~" horiz-adv-x="512"
d="M437 928q-43 -31 -72.5 -41.5t-62.5 -10.5q-43 0 -88 22q-39 19 -49 22q-15 4 -31 4q-21 0 -40 -7.5t-55 -33.5l-39 61q54 58 134 58q38 0 91 -24q51 -23 80 -23q33 0 90 31z" />
    <glyph glyph-name="Ecircumflex.001" unicode="&#xa0;" horiz-adv-x="508"
d="M423 0h-423v862h419v-75h-342v-434h284v-75h-284v-203h346v-75zM267 993l-74 -93h-93l131 164h71l131 -164h-92z" />
    <glyph glyph-name="Ecircumflex.001" unicode="&#xca;" horiz-adv-x="508"
d="M423 0h-423v862h419v-75h-342v-434h284v-75h-284v-203h346v-75zM267 993l-74 -93h-93l131 164h71l131 -164h-92z" />
    <glyph glyph-name="exclamdown" unicode="&#xa1;" horiz-adv-x="151"
d="M76 646h-76v110h76v-110zM76 -105h-76v675h76v-675z" />
    <glyph glyph-name="cent" unicode="&#xa2;" horiz-adv-x="487"
d="M412 258q-62 -62 -145 -70v-88h-76v92q-68 13 -121 66q-70 71 -70 171t70 171q53 52 121 66v95h76v-91q80 -8 141 -67l-58 -58q-48 46 -114 46q-68 0 -117 -49t-49 -118q0 -68 49 -117t117 -49q69 0 118 49l6 6z" />
    <glyph glyph-name="sterling" unicode="&#xa3;" horiz-adv-x="490"
d="M415 0h-336v209h-79v75h79v377q0 82 58 141t140 59v-77q-50 0 -86 -36t-36 -87v-377h139v-75h-139v-133h260v-76z" />
    <glyph glyph-name="currency" unicode="&#xa4;" horiz-adv-x="803"
d="M728 37q-94 -50 -204 -50q-156 0 -276.5 97t-155.5 246h-92v76h82q-1 8 -1 23t1 23h-82v76h92q35 149 155.5 246t276.5 97q113 0 204 -50l-41 -63q-76 38 -163 38q-125 0 -223 -75t-131 -193h557v-76h-570v-46h509v-76h-496q33 -117 131.5 -192.5t222.5 -75.5
q87 0 163 38z" />
    <glyph glyph-name="yen" unicode="&#xa5;" horiz-adv-x="810"
d="M404 369v-369h-75v369l-329 493h91l276 -414l276 414h92z" />
    <glyph glyph-name="dieresis" unicode="&#xa8;" horiz-adv-x="275"
d="M76 900h-76v80h76v-80zM200 900h-76v80h76v-80z" />
    <glyph glyph-name="copyright" unicode="&#xa9;" horiz-adv-x="960"
d="M885 430q0 -182 -130.5 -312t-313.5 -130t-312 129.5t-129 312.5t129 313.5t312 130.5t313.5 -130.5t130.5 -313.5zM808 430q0 152 -107.5 259.5t-259.5 107.5q-151 0 -258.5 -107.5t-107.5 -259.5q0 -151 107.5 -258.5t258.5 -107.5q152 0 259.5 107.5t107.5 258.5z
M605 258v0q-71 -71 -171 -71t-170.5 71t-70.5 171t70.5 171t170.5 71q97 0 167 -68l-58 -58q-48 46 -114 46q-68 0 -117 -49t-49 -118q0 -68 49 -117t117 -49q69 0 118 49l6 6z" />
    <glyph glyph-name="ordfeminine" unicode="&#xaa;" horiz-adv-x="461"
d="M386 398h-80l-17 44h-193l-16 -44h-80l178 473h30zM262 517l-69 188l-69 -188h138z" />
    <glyph glyph-name="guillemotleft" unicode="&#xab;" horiz-adv-x="323"
d="M73 499h75l-72 -145l72 -144h-75l-73 144v1zM173 499h75l-72 -145l72 -144h-75l-73 144v1z" />
    <glyph glyph-name="registered" unicode="&#xae;" horiz-adv-x="960"
d="M885 430q0 -182 -130.5 -312t-313.5 -130t-312 129.5t-129 312.5t129 313.5t312 130.5t313.5 -130.5t130.5 -313.5zM808 430q0 152 -107.5 259.5t-259.5 107.5q-151 0 -258.5 -107.5t-107.5 -259.5q0 -151 107.5 -258.5t258.5 -107.5q152 0 259.5 107.5t107.5 258.5z
M327 200h-77v472h189q37 0 69 -13.5t56 -37.5t38 -56t14 -69v-1q0 -53 -27.5 -95t-72.5 -64l72 -136h-92l-57 119h-112v-119zM327 394h114q21 0 39.5 8t32.5 21.5t22 32t8 39.5v1q0 21 -8 39.5t-22 32t-32.5 21.5t-39.5 8h-114v-203z" />
    <glyph glyph-name="degree" unicode="&#xb0;" horiz-adv-x="309"
d="M234 633q0 -49 -34 -83.5t-83 -34.5q-48 0 -82.5 34.5t-34.5 83.5q0 48 34.5 82.5t82.5 34.5q49 0 83 -34.5t34 -82.5zM165 635q0 21 -15 35.5t-37 14.5q-21 0 -35.5 -14.5t-14.5 -35.5q0 -23 14.5 -37.5t35.5 -14.5q23 0 37.5 14.5t14.5 37.5z" />
    <glyph glyph-name="plusminus" unicode="&#xb1;" horiz-adv-x="275"
d="M200 391h-62v-64h-76v64h-62v76h62v60h76v-60h62v-76zM200 173h-200v76h200v-76z" />
    <glyph glyph-name="acute" unicode="&#xb4;" horiz-adv-x="274"
d="M85 1040h114l-125 -140h-74z" />
    <glyph glyph-name="periodcentered" unicode="&#xb7;" horiz-adv-x="155"
d="M80 251h-80v76h80v-76z" />
    <glyph glyph-name="cedilla" unicode="&#xb8;" horiz-adv-x="223"
d="M148 0l-73 -146h-75l72 146h76z" />
    <glyph glyph-name="ordmasculine" unicode="&#xba;" horiz-adv-x="555"
d="M480 633q0 -99 -70.5 -170t-169.5 -71t-169.5 71t-70.5 170t70.5 169.5t169.5 70.5t169.5 -70.5t70.5 -169.5zM405 633q0 68 -48.5 116t-116.5 48t-116.5 -48t-48.5 -116q0 -69 48 -117t117 -48t117 48t48 117z" />
    <glyph glyph-name="ordmasculine" unicode="&#x222b;" horiz-adv-x="555"
d="M480 633q0 -99 -70.5 -170t-169.5 -71t-169.5 71t-70.5 170t70.5 169.5t169.5 70.5t169.5 -70.5t70.5 -169.5zM405 633q0 68 -48.5 116t-116.5 48t-116.5 -48t-48.5 -116q0 -69 48 -117t117 -48t117 48t48 117z" />
    <glyph glyph-name="guillemotright" unicode="&#xbb;" horiz-adv-x="323"
d="M248 355v-1l-73 -144h-75l72 144l-72 145h75zM148 355v-1l-73 -144h-75l72 144l-72 145h75z" />
    <glyph glyph-name="questiondown" unicode="&#xbf;" horiz-adv-x="438"
d="M307 639h-77v113h77v-113zM363 -41q-61 -69 -154 -69q-87 0 -148 61t-61 148q0 81 54 141l124 137q52 57 52 132v55h77v-55q0 -102 -73 -183l-123 -136q-36 -40 -36 -91q0 -55 39.5 -94.5t94.5 -39.5q57 0 99 44z" />
    <glyph glyph-name="Agrave" unicode="&#xc0;" horiz-adv-x="740"
d="M488 202h-351l-76 -202h-81l333 885l332 -885h-80zM166 277h294l-147 387zM469 900h-74l-125 140h114z" />
    <glyph glyph-name="Aacute" unicode="&#xc1;" horiz-adv-x="740"
d="M488 202h-351l-76 -202h-81l333 885l332 -885h-80zM166 277h294l-147 387zM355 1041h114l-125 -140h-74z" />
    <glyph glyph-name="Acircumflex" unicode="&#xc2;" horiz-adv-x="740"
d="M488 202h-351l-76 -202h-81l333 885l332 -885h-80zM166 277h294l-147 387zM330 1020l-74 -93h-93l131 164h71l131 -164h-92z" />
    <glyph glyph-name="Atilde" unicode="&#xc3;" horiz-adv-x="740"
d="M488 202h-351l-76 -202h-81l333 885l332 -885h-80zM166 277h294l-147 387zM511 951q-40 -29 -67 -38.5t-57 -9.5q-39 0 -81 19q-35 19 -44 22q-15 3 -28 3q-20 0 -37.5 -7t-49.5 -31l-36 56q50 53 123 53q35 0 83 -21q46 -22 73 -22q30 0 82 28z" />
    <glyph glyph-name="Adieresis" unicode="&#xc4;" horiz-adv-x="740"
d="M488 202h-351l-76 -202h-81l333 885l332 -885h-80zM166 277h294l-147 387zM306 927h-76v80h76v-80zM430 927h-76v80h76v-80z" />
    <glyph glyph-name="Aring" unicode="&#xc5;" horiz-adv-x="740"
d="M452 893q0 -49 -34 -84q-20 -20 -46 -29l293 -780h-80l-77 202h-351l-76 -202h-81l294 782q-23 8 -42 27q-34 35 -34 84q0 48 34.5 82.5t82.5 34.5q49 0 83 -34.5t34 -82.5zM186 277h294l-147 387zM383 895q0 21 -15 35.5t-37 14.5q-21 0 -35.5 -14.5t-14.5 -35.5
q0 -23 14.5 -37.5t35.5 -14.5q23 0 37.5 14.5t14.5 37.5z" />
    <glyph glyph-name="AE" unicode="&#xc6;" horiz-adv-x="1014"
d="M939 0h-376v253h-300l-172 -253h-91l581 861h327v-77h-269v-456h285v-76h-285v-176h300v-76zM563 329v369l-250 -369h250z" />
    <glyph glyph-name="Ccedilla" unicode="&#xc7;" horiz-adv-x="761"
d="M686 61q-109 -73 -243 -73q-183 0 -313 130t-130 312q0 183 130 313.5t313 130.5q131 0 243 -73l-41 -64q-90 60 -202 60q-152 0 -259.5 -107.5t-107.5 -259.5q0 -151 108 -258.5t259 -107.5q110 0 202 60zM454 0l-73 -146h-75l72 146h76z" />
    <glyph glyph-name="Egrave" unicode="&#xc8;"
d="M423 0h-423v862h419v-75h-342v-434h284v-75h-284v-203h346v-75zM258 927h-74l-125 140h114z" />
    <glyph glyph-name="Eacute" unicode="&#xc9;"
d="M423 0h-423v862h419v-75h-342v-434h284v-75h-284v-203h346v-75zM234 1067h114l-125 -140h-74z" />
    <glyph glyph-name="Edieresis" unicode="&#xcb;"
d="M423 0h-423v862h419v-75h-342v-434h284v-75h-284v-203h346v-75zM185 927h-76v80h76v-80zM309 927h-76v80h76v-80z" />
    <glyph glyph-name="Igrave" unicode="&#xcc;" horiz-adv-x="150"
d="M75 0h-75v863h75v-863zM81 927h-74l-125 140h114z" />
    <glyph glyph-name="Iacute" unicode="&#xcd;" horiz-adv-x="150"
d="M75 0h-75v863h75v-863zM83 1067h114l-125 -140h-74z" />
    <glyph glyph-name="Icircumflex" unicode="&#xce;" horiz-adv-x="150"
d="M75 0h-75v863h75v-863zM39 1020l-74 -93h-93l131 164h71l131 -164h-92z" />
    <glyph glyph-name="Idieresis" unicode="&#xcf;" horiz-adv-x="150"
d="M75 0h-75v863h75v-863zM17 927h-76v80h76v-80zM141 927h-76v80h76v-80z" />
    <glyph glyph-name="Eth" unicode="&#xd0;" horiz-adv-x="587"
d="M0 0v863h81q178 -1 304.5 -128t126.5 -305t-126.5 -304t-304.5 -126h-81zM75 787v-713h6q147 0 252 104.5t105 251.5q0 148 -104.5 252.5t-252.5 104.5h-6zM143 391h-200v76h200v-76z" />
    <glyph glyph-name="Ntilde" unicode="&#xd1;" horiz-adv-x="749"
d="M674 -22l-600 688v-666h-74v873l600 -698v688h74v-885zM533 951q-40 -29 -67 -38.5t-57 -9.5q-39 0 -81 19q-35 19 -44 22q-15 3 -28 3q-20 0 -37.5 -7t-49.5 -31l-36 56q50 53 123 53q35 0 83 -21q46 -22 73 -22q30 0 82 28z" />
    <glyph glyph-name="Ograve" unicode="&#xd2;" horiz-adv-x="960"
d="M885 430q0 -182 -130.5 -312t-313.5 -130t-312 129.5t-129 312.5t129 313.5t312 130.5t313.5 -130.5t130.5 -313.5zM808 430q0 152 -107.5 259.5t-259.5 107.5q-151 0 -258.5 -107.5t-107.5 -259.5q0 -151 107.5 -258.5t258.5 -107.5q152 0 259.5 107.5t107.5 258.5z
M503 927h-74l-125 140h114z" />
    <glyph glyph-name="Oacute" unicode="&#xd3;" horiz-adv-x="960"
d="M885 430q0 -182 -130.5 -312t-313.5 -130t-312 129.5t-129 312.5t129 313.5t312 130.5t313.5 -130.5t130.5 -313.5zM808 430q0 152 -107.5 259.5t-259.5 107.5q-151 0 -258.5 -107.5t-107.5 -259.5q0 -151 107.5 -258.5t258.5 -107.5q152 0 259.5 107.5t107.5 258.5z
M465 1067h114l-125 -140h-74z" />
    <glyph glyph-name="Ocircumflex" unicode="&#xd4;" horiz-adv-x="960"
d="M885 430q0 -182 -130.5 -312t-313.5 -130t-312 129.5t-129 312.5t129 313.5t312 130.5t313.5 -130.5t130.5 -313.5zM808 430q0 152 -107.5 259.5t-259.5 107.5q-151 0 -258.5 -107.5t-107.5 -259.5q0 -151 107.5 -258.5t258.5 -107.5q152 0 259.5 107.5t107.5 258.5z
M430 1020l-74 -93h-93l131 164h71l131 -164h-92z" />
    <glyph glyph-name="Otilde" unicode="&#xd5;" horiz-adv-x="960"
d="M885 430q0 -182 -130.5 -312t-313.5 -130t-312 129.5t-129 312.5t129 313.5t312 130.5t313.5 -130.5t130.5 -313.5zM808 430q0 152 -107.5 259.5t-259.5 107.5q-151 0 -258.5 -107.5t-107.5 -259.5q0 -151 107.5 -258.5t258.5 -107.5q152 0 259.5 107.5t107.5 258.5z
M651 951q-40 -29 -67 -38.5t-57 -9.5q-39 0 -81 19q-35 19 -44 22q-15 3 -28 3q-20 0 -37.5 -7t-49.5 -31l-36 56q50 53 123 53q35 0 83 -21q46 -22 73 -22q30 0 82 28z" />
    <glyph glyph-name="Odieresis" unicode="&#xd6;" horiz-adv-x="960"
d="M885 430q0 -182 -130.5 -312t-313.5 -130t-312 129.5t-129 312.5t129 313.5t312 130.5t313.5 -130.5t130.5 -313.5zM808 430q0 152 -107.5 259.5t-259.5 107.5q-151 0 -258.5 -107.5t-107.5 -259.5q0 -151 107.5 -258.5t258.5 -107.5q152 0 259.5 107.5t107.5 258.5z
M416 927h-76v80h76v-80zM540 927h-76v80h76v-80z" />
    <glyph glyph-name="multiply" unicode="&#xd7;" horiz-adv-x="271"
d="M143 331l-44 44l-45 -46l-54 54l45 45l-44 44l53 54l44 -44l42 43l54 -54l-42 -42l44 -44z" />
    <glyph glyph-name="Oslash" unicode="&#xd8;" horiz-adv-x="933"
d="M0 417q0 156 101 276l-78 77l52 53l78 -78q119 100 276 100q177 0 303 -125.5t126 -302.5q0 -157 -101 -276l78 -78l-51 -52l-79 77q-121 -100 -276 -100q-178 0 -303.5 125.5t-125.5 303.5zM705 193q80 98 80 224q0 147 -104.5 251.5t-251.5 104.5q-128 0 -224 -81z
M73 417q0 -148 104.5 -252t251.5 -104q128 0 225 80l-501 500q-80 -99 -80 -224z" />
    <glyph glyph-name="Ugrave" unicode="&#xd9;" horiz-adv-x="766"
d="M691 345q0 -142 -101.5 -243.5t-243.5 -101.5q-143 0 -244.5 101.5t-101.5 243.5v517h76v-517q0 -111 79 -190.5t191 -79.5q110 0 190 79.5t80 190.5v517h75v-517zM432 927h-74l-125 140h114z" />
    <glyph glyph-name="Uacute" unicode="&#xda;" horiz-adv-x="766"
d="M691 345q0 -142 -101.5 -243.5t-243.5 -101.5q-143 0 -244.5 101.5t-101.5 243.5v517h76v-517q0 -111 79 -190.5t191 -79.5q110 0 190 79.5t80 190.5v517h75v-517zM368 1067h114l-125 -140h-74z" />
    <glyph glyph-name="Ucircumflex" unicode="&#xdb;" horiz-adv-x="766"
d="M691 345q0 -142 -101.5 -243.5t-243.5 -101.5q-143 0 -244.5 101.5t-101.5 243.5v517h76v-517q0 -111 79 -190.5t191 -79.5q110 0 190 79.5t80 190.5v517h75v-517zM343 1020l-74 -93h-93l131 164h71l131 -164h-92z" />
    <glyph glyph-name="Udieresis" unicode="&#xdc;" horiz-adv-x="766"
d="M691 345q0 -142 -101.5 -243.5t-243.5 -101.5q-143 0 -244.5 101.5t-101.5 243.5v517h76v-517q0 -111 79 -190.5t191 -79.5q110 0 190 79.5t80 190.5v517h75v-517zM319 927h-76v80h76v-80zM443 927h-76v80h76v-80z" />
    <glyph glyph-name="Yacute" unicode="&#xdd;" horiz-adv-x="810"
d="M404 369v-369h-75v369l-329 493h91l276 -414l276 414h92zM390 1067h114l-125 -140h-74z" />
    <glyph glyph-name="agrave" unicode="&#xe0;"
d="M0 650q0 44 16.5 82.5t45 67.5t67 45.5t82.5 16.5t82.5 -16.5t67.5 -45.5t45.5 -67.5t16.5 -82.5v-650h-77v509h-269v-509h-77v650zM77 584h269v68q0 28 -10.5 52.5t-29 43t-43 29t-52.5 10.5t-52.5 -10.5t-42.5 -29t-28.5 -43t-10.5 -52.5v-68zM323 900h-74l-125 140
h114z" />
    <glyph glyph-name="aacute" unicode="&#xe1;"
d="M0 650q0 44 16.5 82.5t45 67.5t67 45.5t82.5 16.5t82.5 -16.5t67.5 -45.5t45.5 -67.5t16.5 -82.5v-650h-77v509h-269v-509h-77v650zM77 584h269v68q0 28 -10.5 52.5t-29 43t-43 29t-52.5 10.5t-52.5 -10.5t-42.5 -29t-28.5 -43t-10.5 -52.5v-68zM214 1040h114l-125 -140
h-74z" />
    <glyph glyph-name="acircumflex" unicode="&#xe2;"
d="M0 650q0 44 16.5 82.5t45 67.5t67 45.5t82.5 16.5t82.5 -16.5t67.5 -45.5t45.5 -67.5t16.5 -82.5v-650h-77v509h-269v-509h-77v650zM77 584h269v68q0 28 -10.5 52.5t-29 43t-43 29t-52.5 10.5t-52.5 -10.5t-42.5 -29t-28.5 -43t-10.5 -52.5v-68zM209 993l-74 -93h-93
l131 164h71l131 -164h-92z" />
    <glyph glyph-name="atilde" unicode="&#xe3;"
d="M0 650q0 44 16.5 82.5t45 67.5t67 45.5t82.5 16.5t82.5 -16.5t67.5 -45.5t45.5 -67.5t16.5 -82.5v-650h-77v509h-269v-509h-77v650zM77 584h269v68q0 28 -10.5 52.5t-29 43t-43 29t-52.5 10.5t-52.5 -10.5t-42.5 -29t-28.5 -43t-10.5 -52.5v-68zM410 924
q-40 -29 -67 -38.5t-57 -9.5q-39 0 -81 19q-35 19 -44 22q-15 3 -28 3q-20 0 -37.5 -7t-49.5 -31l-36 56q50 53 123 53q35 0 83 -21q46 -22 73 -22q30 0 82 28z" />
    <glyph glyph-name="adieresis" unicode="&#xe4;"
d="M0 650q0 44 16.5 82.5t45 67.5t67 45.5t82.5 16.5t82.5 -16.5t67.5 -45.5t45.5 -67.5t16.5 -82.5v-650h-77v509h-269v-509h-77v650zM77 584h269v68q0 28 -10.5 52.5t-29 43t-43 29t-52.5 10.5t-52.5 -10.5t-42.5 -29t-28.5 -43t-10.5 -52.5v-68zM192 900h-76v80h76v-80z
M316 900h-76v80h76v-80z" />
    <glyph glyph-name="aring" unicode="&#xe5;"
d="M0 650q0 63 32.5 113.5t84.5 76.5q-22 30 -22 70q0 48 34.5 82.5t82.5 34.5q49 0 83 -34.5t34 -82.5q0 -40 -23 -71q52 -26 84.5 -76.5t32.5 -112.5v-650h-77v509h-269v-509h-77v650zM77 584h269v68q0 28 -10.5 52.5t-29 43t-43 29t-52.5 10.5t-52.5 -10.5t-42.5 -29
t-28.5 -43t-10.5 -52.5v-68zM260 912q0 21 -15 35.5t-37 14.5q-21 0 -35.5 -14.5t-14.5 -35.5q0 -23 14 -38q10 -9 22 -13q5 1 8.5 1h8.5h13q12 3 21 12q15 15 15 38z" />
    <glyph glyph-name="ae" unicode="&#xe6;" horiz-adv-x="1014"
d="M939 0h-376v253h-300l-172 -253h-91l581 861h327v-77h-269v-456h285v-76h-285v-176h300v-76zM563 329v369l-250 -369h250z" />
    <glyph glyph-name="ccedilla" unicode="&#xe7;" horiz-adv-x="761"
d="M686 61q-109 -73 -243 -73q-183 0 -313 130t-130 312q0 183 130 313.5t313 130.5q131 0 243 -73l-41 -64q-90 60 -202 60q-152 0 -259.5 -107.5t-107.5 -259.5q0 -151 108 -258.5t259 -107.5q110 0 202 60zM454 0l-73 -146h-75l72 146h76z" />
    <glyph glyph-name="egrave" unicode="&#xe8;"
d="M423 787h-346v-203h284v-75h-284v-434h342v-75h-419v862h423v-75zM288 900h-74l-125 140h114z" />
    <glyph glyph-name="eacute" unicode="&#xe9;"
d="M423 787h-346v-203h284v-75h-284v-434h342v-75h-419v862h423v-75zM234 1040h114l-125 -140h-74z" />
    <glyph glyph-name="ecircumflex" unicode="&#xea;"
d="M423 787h-346v-203h284v-75h-284v-434h342v-75h-419v862h423v-75zM249 993l-74 -93h-93l131 164h71l131 -164h-92z" />
    <glyph glyph-name="edieresis" unicode="&#xeb;"
d="M423 787h-346v-203h284v-75h-284v-434h342v-75h-419v862h423v-75zM195 900h-76v80h76v-80zM319 900h-76v80h76v-80z" />
    <glyph glyph-name="igrave" unicode="&#xec;" horiz-adv-x="150"
d="M75 0h-75v863h75v-863zM117 900h-74l-125 140h114z" />
    <glyph glyph-name="iacute" unicode="&#xed;" horiz-adv-x="150"
d="M75 0h-75v863h75v-863zM72 1040h114l-125 -140h-74z" />
    <glyph glyph-name="icircumflex" unicode="&#xee;" horiz-adv-x="150"
d="M75 0h-75v863h75v-863zM38 993l-74 -93h-93l131 164h71l131 -164h-92z" />
    <glyph glyph-name="idieresis" unicode="&#xef;" horiz-adv-x="150"
d="M75 0h-75v863h75v-863zM13 900h-76v80h76v-80zM137 900h-76v80h76v-80z" />
    <glyph glyph-name="ntilde" unicode="&#xf1;" horiz-adv-x="749"
d="M674 -22l-600 688v-666h-74v873l600 -698v688h74v-885zM546 924q-40 -29 -67 -38.5t-57 -9.5q-39 0 -81 19q-35 19 -44 22q-15 3 -28 3q-20 0 -37.5 -7t-49.5 -31l-36 56q50 53 123 53q35 0 83 -21q46 -22 73 -22q30 0 82 28z" />
    <glyph glyph-name="ograve" unicode="&#xf2;" horiz-adv-x="960"
d="M885 430q0 -182 -130.5 -312t-313.5 -130t-312 129.5t-129 312.5t129 313.5t312 130.5t313.5 -130.5t130.5 -313.5zM808 430q0 152 -107.5 259.5t-259.5 107.5q-151 0 -258.5 -107.5t-107.5 -259.5q0 -151 107.5 -258.5t258.5 -107.5q152 0 259.5 107.5t107.5 258.5z
M529 900h-74l-125 140h114z" />
    <glyph glyph-name="oacute" unicode="&#xf3;" horiz-adv-x="960"
d="M885 430q0 -182 -130.5 -312t-313.5 -130t-312 129.5t-129 312.5t129 313.5t312 130.5t313.5 -130.5t130.5 -313.5zM808 430q0 152 -107.5 259.5t-259.5 107.5q-151 0 -258.5 -107.5t-107.5 -259.5q0 -151 107.5 -258.5t258.5 -107.5q152 0 259.5 107.5t107.5 258.5z
M435 1040h114l-125 -140h-74z" />
    <glyph glyph-name="ocircumflex" unicode="&#xf4;" horiz-adv-x="960"
d="M885 430q0 -182 -130.5 -312t-313.5 -130t-312 129.5t-129 312.5t129 313.5t312 130.5t313.5 -130.5t130.5 -313.5zM808 430q0 152 -107.5 259.5t-259.5 107.5q-151 0 -258.5 -107.5t-107.5 -259.5q0 -151 107.5 -258.5t258.5 -107.5q152 0 259.5 107.5t107.5 258.5z
M450 993l-74 -93h-93l131 164h71l131 -164h-92z" />
    <glyph glyph-name="otilde" unicode="&#xf5;" horiz-adv-x="960"
d="M885 430q0 -182 -130.5 -312t-313.5 -130t-312 129.5t-129 312.5t129 313.5t312 130.5t313.5 -130.5t130.5 -313.5zM808 430q0 152 -107.5 259.5t-259.5 107.5q-151 0 -258.5 -107.5t-107.5 -259.5q0 -151 107.5 -258.5t258.5 -107.5q152 0 259.5 107.5t107.5 258.5z
M631 924q-40 -29 -67 -38.5t-57 -9.5q-39 0 -81 19q-35 19 -44 22q-15 3 -28 3q-20 0 -37.5 -7t-49.5 -31l-36 56q50 53 123 53q35 0 83 -21q46 -22 73 -22q30 0 82 28z" />
    <glyph glyph-name="odieresis" unicode="&#xf6;" horiz-adv-x="960"
d="M885 430q0 -182 -130.5 -312t-313.5 -130t-312 129.5t-129 312.5t129 313.5t312 130.5t313.5 -130.5t130.5 -313.5zM808 430q0 152 -107.5 259.5t-259.5 107.5q-151 0 -258.5 -107.5t-107.5 -259.5q0 -151 107.5 -258.5t258.5 -107.5q152 0 259.5 107.5t107.5 258.5z
M426 900h-76v80h76v-80zM550 900h-76v80h76v-80z" />
    <glyph glyph-name="divide" unicode="&#xf7;" horiz-adv-x="345"
d="M270 251h-270v76h270v-76zM175 381h-80v76h80v-76zM175 121h-80v76h80v-76z" />
    <glyph glyph-name="oslash" unicode="&#xf8;" horiz-adv-x="933"
d="M858 417q0 -178 -125.5 -303.5t-303.5 -125.5q-155 0 -276 100l-79 -77l-51 52l78 78q-101 119 -101 276q0 177 126 302.5t303 125.5q157 0 276 -100l78 78l52 -53l-78 -77q101 -120 101 -276zM653 692q-96 81 -224 81q-147 0 -251.5 -104.5t-104.5 -251.5
q0 -126 80 -224zM785 417q0 125 -80 224l-501 -500q97 -80 225 -80q147 0 251.5 104t104.5 252z" />
    <glyph glyph-name="ugrave" unicode="&#xf9;" horiz-adv-x="766"
d="M691 345q0 -142 -101.5 -243.5t-243.5 -101.5q-143 0 -244.5 101.5t-101.5 243.5v517h76v-517q0 -111 79 -190.5t191 -79.5q110 0 190 79.5t80 190.5v517h75v-517zM482 900h-74l-125 140h114z" />
    <glyph glyph-name="uacute" unicode="&#xfa;" horiz-adv-x="766"
d="M691 345q0 -142 -101.5 -243.5t-243.5 -101.5q-143 0 -244.5 101.5t-101.5 243.5v517h76v-517q0 -111 79 -190.5t191 -79.5q110 0 190 79.5t80 190.5v517h75v-517zM368 1040h114l-125 -140h-74z" />
    <glyph glyph-name="ucircumflex" unicode="&#xfb;" horiz-adv-x="766"
d="M691 345q0 -142 -101.5 -243.5t-243.5 -101.5q-143 0 -244.5 101.5t-101.5 243.5v517h76v-517q0 -111 79 -190.5t191 -79.5q110 0 190 79.5t80 190.5v517h75v-517zM383 993l-74 -93h-93l131 164h71l131 -164h-92z" />
    <glyph glyph-name="udieresis" unicode="&#xfc;" horiz-adv-x="766"
d="M691 345q0 -142 -101.5 -243.5t-243.5 -101.5q-143 0 -244.5 101.5t-101.5 243.5v517h76v-517q0 -111 79 -190.5t191 -79.5q110 0 190 79.5t80 190.5v517h75v-517zM359 900h-76v80h76v-80zM483 900h-76v80h76v-80z" />
    <glyph glyph-name="yacute" unicode="&#xfd;" horiz-adv-x="622"
d="M91 862l181 -273l183 273h92l-237 -354v-508h-75v510l-235 352h91zM296 1040h114l-125 -140h-74z" />
    <glyph glyph-name="ydieresis" unicode="&#xff;" horiz-adv-x="622"
d="M91 862l181 -273l183 273h92l-237 -354v-508h-75v510l-235 352h91zM257 900h-76v80h76v-80zM381 900h-76v80h76v-80z" />
    <glyph glyph-name="OE" unicode="&#x152;" horiz-adv-x="940"
d="M441 0q-182 0 -311 118q-130 118 -130 327q0 156 129.5 286.5t312.5 130.5h393v-75h-317v-434h284v-75h-284v-203h347v-75h-424zM183 171q107 -95 258 -95v709q-151 -1 -258 -108q-108 -108 -108 -232q0 -178 108 -274z" />
    <glyph glyph-name="oe" unicode="&#x153;" horiz-adv-x="940"
d="M441 0q-182 0 -311 118q-130 118 -130 327q0 156 129.5 286.5t312.5 130.5h393v-75h-317v-434h284v-75h-284v-203h347v-75h-424zM183 171q107 -95 258 -95v709q-151 -1 -258 -108q-108 -108 -108 -232q0 -178 108 -274z" />
    <glyph glyph-name="Scaron" unicode="&#x160;" horiz-adv-x="529"
d="M266 971l74 93h93l-131 -164h-71l-131 164h92zM381 735q-21 28 -49 45t-66 21q-33 3 -62 -3t-51.5 -21.5t-36.5 -40t-17 -58.5t6.5 -55t32.5 -39.5t59 -39.5t86 -55q35 -20 71 -46.5t59 -55.5q25 -30 34.5 -70.5t4.5 -83.5q-5 -56 -29.5 -101.5t-62.5 -76t-86.5 -45
t-101.5 -9.5q-58 5 -110 33.5t-82 76.5l60 50q20 -38 53.5 -58t83.5 -25q36 -4 70 4t61.5 27t46 49t22.5 71q4 43 -5.5 70.5t-29.5 48.5t-48 39.5t-61 41.5q-23 12 -45.5 24t-45 26t-44 30.5t-41.5 39.5q-23 26 -31.5 61t-3.5 80q4 46 26.5 82.5t57 61.5t78 36.5t91.5 6.5
q47 -5 89 -28.5t73 -60.5z" />
    <glyph glyph-name="scaron" unicode="&#x161;" horiz-adv-x="529"
d="M433 1088l-159 -199h-55l-159 199h42l145 -119l144 119h42zM381 735q-21 28 -49 45t-66 21q-33 3 -62 -3t-51.5 -21.5t-36.5 -40t-17 -58.5t6.5 -55t32.5 -39.5t59 -39.5t86 -55q35 -20 71 -46.5t59 -55.5q25 -30 34.5 -70.5t4.5 -83.5q-5 -56 -29.5 -101.5t-62.5 -76
t-86.5 -45t-101.5 -9.5q-58 5 -110 33.5t-82 76.5l60 50q20 -38 53.5 -58t83.5 -25q36 -4 70 4t61.5 27t46 49t22.5 71q4 43 -5.5 70.5t-29.5 48.5t-48 39.5t-61 41.5q-23 12 -45.5 24t-45 26t-44 30.5t-41.5 39.5q-23 26 -31.5 61t-3.5 80q4 46 26.5 82.5t57 61.5t78 36.5
t91.5 6.5q47 -5 89 -28.5t73 -60.5z" />
    <glyph glyph-name="Ydieresis" unicode="&#x178;" horiz-adv-x="810"
d="M404 369v-369h-75v369l-329 493h91l276 -414l276 414h92zM376 900h-76v80h76v-80zM500 900h-76v80h76v-80z" />
    <glyph glyph-name="circumflex" unicode="&#x2c6;" horiz-adv-x="408"
d="M167 993l-74 -93h-93l131 164h71l131 -164h-92z" />
    <glyph glyph-name="tilde" unicode="&#x2dc;" horiz-adv-x="475"
d="M400 924q-40 -29 -67 -38.5t-57 -9.5q-39 0 -81 19q-35 19 -44 22q-15 3 -28 3q-20 0 -37.5 -7t-49.5 -31l-36 56q50 53 123 53q35 0 83 -21q46 -22 73 -22q30 0 82 28z" />
    <glyph glyph-name="endash" unicode="&#x2013;" horiz-adv-x="471"
d="M396 391h-396v76h396v-76z" />
    <glyph glyph-name="emdash" unicode="&#x2014;" horiz-adv-x="961"
d="M886 391h-886v76h886v-76z" />
    <glyph glyph-name="quoteleft" unicode="&#x2018;" horiz-adv-x="151"
d="M0 863l38 40v-40h38v-80h-76v80z" />
    <glyph glyph-name="quoteright" unicode="&#x2019;" horiz-adv-x="151"
d="M76 783l-38 -40v40h-38v80h76v-80z" />
    <glyph glyph-name="quotesinglbase" unicode="&#x201a;" horiz-adv-x="151"
d="M76 0l-38 -40v40h-38v80h76v-80z" />
    <glyph glyph-name="quotedblleft" unicode="&#x201c;" horiz-adv-x="251"
d="M0 863l38 40v-40h38v-80h-76v80zM100 863l38 40v-40h38v-80h-76v80z" />
    <glyph glyph-name="quotedblright" unicode="&#x201d;" horiz-adv-x="251"
d="M76 783l-38 -40v40h-38v80h76v-80zM176 783l-38 -40v40h-38v80h76v-80z" />
    <glyph glyph-name="quotedblbase" unicode="&#x201e;" horiz-adv-x="251"
d="M176 0l-38 -40v40h-38v80h76v-80zM76 0l-38 -40v40h-38v80h76v-80z" />
    <glyph glyph-name="bullet" unicode="&#x2022;" horiz-adv-x="275"
d="M200 398q0 -41 -29 -70t-71 -29t-71 29t-29 70q0 42 29.5 71t70.5 29q42 0 71 -29t29 -71z" />
    <glyph glyph-name="ellipsis" unicode="&#x2026;" horiz-adv-x="411"
d="M336 0h-76v80h76v-80zM206 0h-76v80h76v-80zM76 0h-76v80h76v-80z" />
    <glyph glyph-name="guilsinglleft" unicode="&#x2039;" horiz-adv-x="223"
d="M73 499h75l-72 -145l72 -144h-75l-73 144v1z" />
    <glyph glyph-name="guilsinglright" unicode="&#x203a;" horiz-adv-x="223"
d="M148 355v-1l-73 -144h-75l72 144l-72 145h75z" />
    <glyph glyph-name="Euro" unicode="&#x20ac;" horiz-adv-x="803"
d="M728 37q-94 -50 -204 -50q-156 0 -276.5 97t-155.5 246h-92v76h82q-1 8 -1 23t1 23h-82v76h92q35 149 155.5 246t276.5 97q113 0 204 -50l-41 -63q-76 38 -163 38q-125 0 -223 -75t-131 -193h390v-76h-403v-46h402v-76h-389q33 -117 131.5 -192.5t222.5 -75.5
q87 0 163 38z" />
    <glyph glyph-name="minus" unicode="&#x2212;" horiz-adv-x="275"
d="M200 391h-200v76h200v-76z" />
    <glyph glyph-name="Ecircumflex" horiz-adv-x="500"
d="M423 0h-423v862h419v-75h-342v-434h284v-75h-284v-203h346v-75z" />
    </font>
</defs>
</svg>
